<svg xmlns="http://www.w3.org/2000/svg" xmlns:xlink="http://www.w3.org/1999/xlink" width="912.01" height="776.14" viewBox="0 0 912.01 776.14">
  <defs>
    <mask id="a" x="644.09" y="196.53" width="221.6" height="688.8" maskUnits="userSpaceOnUse">
      <g transform="translate(-126.85 -76.8)">
        <g>
          <rect x="770.93" y="273.33" width="212.27" height="308.27" fill="#fff"/>
          <rect x="780.27" y="653.87" width="212.27" height="308.27" fill="#fff"/>
        </g>
      </g>
    </mask>
    <mask id="b" x="308.62" y="123.73" width="117.73" height="96.17" maskUnits="userSpaceOnUse">
      <g transform="translate(-126.85 -76.8)">
        <g>
          <rect x="435.47" y="200.53" width="117.73" height="44.67" fill="#fff"/>
          <rect x="435.47" y="274.37" width="117.73" height="22.33" fill="#fff"/>
        </g>
      </g>
    </mask>
    <mask id="c" x="672.35" y="56.8" width="253.87" height="448.53" maskUnits="userSpaceOnUse">
      <g transform="translate(-126.85 -76.8)">
        <g>
          <rect x="799.2" y="133.6" width="247.47" height="95.47" fill="#fff"/>
          <rect x="842.4" y="294.13" width="210.67" height="288" fill="#fff"/>
        </g>
      </g>
    </mask>
    <mask id="d" x="428.62" y="295.11" width="117.73" height="78.04" maskUnits="userSpaceOnUse">
      <g transform="translate(-126.85 -76.8)">
        <g>
          <rect x="555.47" y="371.91" width="117.73" height="36.25" fill="#fff"/>
          <rect x="555.47" y="431.82" width="117.73" height="18.12" fill="#fff"/>
        </g>
      </g>
    </mask>
    <mask id="e" x="306.19" y="478.28" width="117.73" height="103.86" maskUnits="userSpaceOnUse">
      <g transform="translate(-126.85 -76.8)">
        <g>
          <rect x="433.03" y="555.08" width="117.73" height="48.24" fill="#fff"/>
          <rect x="433.03" y="634.82" width="117.73" height="24.12" fill="#fff"/>
        </g>
      </g>
    </mask>
  </defs>
  <g>
    <g>
      <rect x="251.29" y="577.13" width="229.97" height="82" rx="9" fill="#b2b09c"/>
      <path d="M599.1,654.93a8,8,0,0,1,8,8v64a8,8,0,0,1-8,8h-212a8,8,0,0,1-8-8v-64a8,8,0,0,1,8-8h212m0-2h-212a10,10,0,0,0-10,10v64a10,10,0,0,0,10,10h212a10,10,0,0,0,10-10v-64a10,10,0,0,0-10-10Z" transform="translate(-126.85 -76.8)" fill="#8a886a"/>
    </g>
    <g>
      <rect x="516.29" y="577.13" width="202.17" height="82" rx="9" fill="#b2b09b"/>
      <path d="M836.3,654.93a8,8,0,0,1,8,8v64a8,8,0,0,1-8,8H652.13a8,8,0,0,1-8-8v-64a8,8,0,0,1,8-8H836.3m0-2H652.13a10,10,0,0,0-10,10v64a10,10,0,0,0,10,10H836.3a10,10,0,0,0,10-10v-64a10,10,0,0,0-10-10Z" transform="translate(-126.85 -76.8)" fill="#8a886a"/>
    </g>
    <text transform="translate(551.75 612.28)" font-size="22" fill="#221f1f" font-family="Roboto-Regular, Roboto">Modules with<tspan x="0.16" y="26.4">media assets</tspan></text>
    <text transform="translate(274.46 612.28)" font-size="22" fill="#221f1f" font-family="Roboto-Regular, Roboto">D&amp;D5e Animations<tspan x="5.21" y="26.4">PF2e Animations</tspan><tspan x="172.34" y="26.4">-</tspan></text>
    <path d="M645,754.6h0c0,5.08,3.55,9.2,7.94,9.2h84.92c4.39,0,7.94,4.12,7.94,9.2v0c0-5.08,3.55-9.2,7.94-9.2h84.92c4.39,0,7.94-4.12,7.94-9.2h0" transform="translate(-126.85 -76.8)" fill="none" stroke="#fcb913" stroke-linecap="round" stroke-linejoin="round" stroke-width="3"/>
    <g>
      <path d="M375.5,754.4h0a9.2,9.2,0,0,0,9.2,9.2h98.4a9.2,9.2,0,0,1,9.2,9.2v0a9.2,9.2,0,0,1,9.2-9.2h98.4a9.2,9.2,0,0,0,9.2-9.2h0" transform="translate(-126.85 -76.8)" fill="none" stroke="#8a886a" stroke-linecap="round" stroke-linejoin="round" stroke-width="5"/>
      <path d="M375.5,754.4h0a9.2,9.2,0,0,0,9.2,9.2h98.4a9.2,9.2,0,0,1,9.2,9.2v0a9.2,9.2,0,0,1,9.2-9.2h98.4a9.2,9.2,0,0,0,9.2-9.2h0" transform="translate(-126.85 -76.8)" fill="none" stroke="#dcdad1" stroke-linecap="round" stroke-linejoin="round" stroke-width="3"/>
    </g>
    <text transform="translate(583.89 733.95)" font-size="28" fill="#fcb913" font-family="Roboto-Bold, Roboto" font-weight="700">JB2A</text>
    <g>
      <text transform="translate(330.73 733.95)" font-size="28" fill="#dcdad1" font-family="Roboto-Bold, Roboto" font-weight="700"><tspan letter-spacing="-0.01em">E</tspan><tspan x="15.5" y="0">f</tspan><tspan x="25.54" y="0" letter-spacing="-0.01em">f</tspan><tspan x="35.25" y="0">ect</tspan><tspan x="-11.05" y="33.6">P</tspan><tspan x="7.01" y="33.6" letter-spacing="-0.01em">r</tspan><tspan x="16.97" y="33.6">esets</tspan></text>
      <text transform="translate(330.73 733.95)" font-size="28" fill="none" stroke="#8a886a" stroke-miterlimit="10" stroke-width="2" font-family="Roboto-Bold, Roboto" font-weight="700"><tspan letter-spacing="-0.01em">E</tspan><tspan x="15.5" y="0">f</tspan><tspan x="25.54" y="0" letter-spacing="-0.01em">f</tspan><tspan x="35.25" y="0">ect</tspan><tspan x="-11.05" y="33.6">P</tspan><tspan x="7.01" y="33.6" letter-spacing="-0.01em">r</tspan><tspan x="16.97" y="33.6">esets</tspan></text>
      <text transform="translate(330.73 733.95)" font-size="28" fill="#dcdad1" font-family="Roboto-Bold, Roboto" font-weight="700"><tspan letter-spacing="-0.01em">E</tspan><tspan x="15.5" y="0">f</tspan><tspan x="25.54" y="0" letter-spacing="-0.01em">f</tspan><tspan x="35.25" y="0">ect</tspan><tspan x="-11.05" y="33.6">P</tspan><tspan x="7.01" y="33.6" letter-spacing="-0.01em">r</tspan><tspan x="16.97" y="33.6">esets</tspan></text>
    </g>
    <g>
      <text transform="translate(1.5 630.78)" font-size="36" fill="#dcdad1" stroke="#8a886a" stroke-miterlimit="10" font-family="Roboto-Bold, Roboto" font-weight="700">Lib<tspan x="49.31" y="0" letter-spacing="-0.01em">r</tspan><tspan x="61.91" y="0">aries</tspan></text>
      <text transform="translate(1.5 630.78)" font-size="36" fill="none" stroke="#8a886a" stroke-miterlimit="10" stroke-width="3" font-family="Roboto-Bold, Roboto" font-weight="700">Lib<tspan x="49.31" y="0" letter-spacing="-0.01em">r</tspan><tspan x="61.91" y="0">aries</tspan></text>
      <text transform="translate(1.5 630.78)" font-size="36" fill="#dcdad1" font-family="Roboto-Bold, Roboto" font-weight="700">Lib<tspan x="49.31" y="0" letter-spacing="-0.01em">r</tspan><tspan x="61.91" y="0">aries</tspan></text>
    </g>
    <g>
      <line x1="249.75" y1="621.13" x2="146.22" y2="621.13" fill="none" stroke-dasharray="1 20" stroke-linecap="round" stroke-linejoin="round" stroke-width="8" stroke="#8a886a"/>
      <line x1="249.75" y1="621.13" x2="146.22" y2="621.13" fill="none" stroke-dasharray="1 20" stroke-linecap="round" stroke-linejoin="round" stroke-width="5" stroke="#dcdad1"/>
    </g>
  </g>
  <g>
    <g>
      <rect x="251.25" y="370.83" width="467" height="134.07" rx="8.5" fill="#254441"/>
      <path d="M836.6,449.13a7,7,0,0,1,7,7V573.2a7,7,0,0,1-7,7h-450a7,7,0,0,1-7-7V456.13a7,7,0,0,1,7-7h450m0-3h-450a10,10,0,0,0-10,10V573.2a10,10,0,0,0,10,10h450a10,10,0,0,0,10-10V456.13a10,10,0,0,0-10-10Z" transform="translate(-126.85 -76.8)" fill="#0d1a18"/>
    </g>
    <rect x="516.99" y="398.8" width="184.33" height="82.53" rx="10" fill="none" stroke="#4f928b" stroke-miterlimit="10" stroke-width="2"/>
    <rect x="271.95" y="399.42" width="184.33" height="82.53" rx="10" fill="none" stroke="#4f928b" stroke-miterlimit="10" stroke-width="2"/>
    <text transform="translate(520.77 449.06)" font-size="27" fill="#fff" font-family="Roboto-Bold, Roboto" font-weight="700">PF2e G<tspan x="87.41" y="0" letter-spacing="-0.01em">r</tspan><tspan x="96.86" y="0">aphics</tspan></text>
    <text transform="translate(472.74 447.81)" font-size="22" fill="#c81f3b" font-family="Roboto-Bold, Roboto" font-weight="700" text-decoration="underline">OR</text>
    <text transform="translate(297.5 433.08)" font-size="27" fill="#fff" font-family="Roboto-Bold, Roboto" font-weight="700"><tspan letter-spacing="-0.01em">A</tspan><tspan x="18.02" y="0">u</tspan><tspan x="33.13" y="0" letter-spacing="-0.01em">t</tspan><tspan x="41.86" y="0">omated</tspan><tspan x="-2.16" y="32.4" letter-spacing="-0.02em">A</tspan><tspan x="15.38" y="32.4">nimations</tspan></text>
    <text transform="translate(1.5 428.82)" font-size="36" fill="#4f928b" font-family="Roboto-Bold, Roboto" font-weight="700">User<tspan x="0" y="43.2">Inte</tspan><tspan x="62.28" y="43.2" letter-spacing="0.01em">r</tspan><tspan x="75.76" y="43.2">face</tspan></text>
    <line x1="249.75" y1="437.87" x2="149.69" y2="437.87" fill="none" stroke-dasharray="1 20" stroke-linecap="round" stroke-linejoin="round" stroke-width="5" stroke="#4f928b"/>
  </g>
  <g>
    <g>
      <rect x="251.25" y="216.7" width="467" height="79.67" rx="8.5" fill="#40a88a"/>
      <path d="M836.6,295a7,7,0,0,1,7,7v62.67a7,7,0,0,1-7,7h-450a7,7,0,0,1-7-7V302a7,7,0,0,1,7-7h450m0-3h-450a10,10,0,0,0-10,10v62.67a10,10,0,0,0,10,10h450a10,10,0,0,0,10-10V302a10,10,0,0,0-10-10Z" transform="translate(-126.85 -76.8)" fill="#2a6755"/>
    </g>
    <text transform="translate(383.07 268.94)" font-size="36" fill="#f1f1f2" font-family="Roboto-Bold, Roboto" font-weight="700">SEQUENCER</text>
    <g>
      <line x1="249.75" y1="259.15" x2="149.69" y2="259.15" fill="none" stroke-dasharray="1 20" stroke-linecap="round" stroke-linejoin="round" stroke-width="8" stroke="#2a6755"/>
      <line x1="249.75" y1="259.15" x2="149.69" y2="259.15" fill="none" stroke-dasharray="1 20" stroke-linecap="round" stroke-linejoin="round" stroke-width="5" stroke="#e2eee9"/>
    </g>
    <g>
      <text transform="translate(1.5 269.85)" font-size="36" fill="#b5d5c8" font-family="Roboto-Bold, Roboto" font-weight="700">Engine</text>
      <text transform="translate(1.5 269.85)" font-size="36" fill="none" stroke="#2a6755" stroke-miterlimit="10" stroke-width="3" font-family="Roboto-Bold, Roboto" font-weight="700">Engine</text>
      <text transform="translate(1.5 269.85)" font-size="36" fill="#b5d5c8" font-family="Roboto-Bold, Roboto" font-weight="700">Engine</text>
    </g>
  </g>
  <g>
    <g>
      <rect x="252.75" y="3" width="464" height="146" rx="7" fill="#db504a"/>
      <path d="M836.6,82.8a4,4,0,0,1,4,4v132a4,4,0,0,1-4,4h-450a4,4,0,0,1-4-4V86.8a4,4,0,0,1,4-4h450m0-6h-450a10,10,0,0,0-10,10v132a10,10,0,0,0,10,10h450a10,10,0,0,0,10-10V86.8a10,10,0,0,0-10-10Z" transform="translate(-126.85 -76.8)" fill="#ab2524"/>
    </g>
    <rect x="285.75" y="77.13" width="164.4" height="50" rx="10" fill="none" stroke="#f1b9b6" stroke-miterlimit="10" stroke-width="2"/>
    <rect x="538.7" y="77.13" width="140" height="50" rx="10" fill="none" stroke="#f1b9b6" stroke-miterlimit="10" stroke-width="2"/>
    <text transform="translate(372.69 59)" font-size="38" fill="#fff" font-family="Roboto-Bold, Roboto" font-weight="700">FOUD<tspan x="96.76" y="0" letter-spacing="-0.02em">R</tspan><tspan x="120.12" y="0">Y V</tspan><tspan x="177.92" y="0" letter-spacing="0.01em">T</tspan><tspan x="201.73" y="0" letter-spacing="-0.03em">T</tspan></text>
    <text transform="translate(571.9 114.83)" font-size="36" fill="#fff" font-family="Roboto-Bold, Roboto" font-weight="700">User</text>
    <text transform="translate(1.5 88.39)" font-size="36" fill="#f1b9b6" font-family="Roboto-Bold, Roboto" font-weight="700"><tspan letter-spacing="-0.02em">A</tspan><tspan x="23.38" y="0">pp</tspan></text>
    <text transform="translate(309.08 113.83)" font-size="36" fill="#fff" font-family="Roboto-Bold, Roboto" font-weight="700">Can<tspan x="63.02" y="0" letter-spacing="-0.01em">v</tspan><tspan x="80.95" y="0">as</tspan></text>
    <line x1="249.75" y1="77.13" x2="149.69" y2="77.13" fill="none" stroke-dasharray="1 20" stroke-linecap="round" stroke-linejoin="round" stroke-width="5" stroke="#f1b9b6"/>
  </g>
  <g>
    <g mask="url(#a)">
      <g>
        <g>
          <path d="M846.6,694.93h55.67A10.53,10.53,0,0,0,912.8,684.4V343.87a10.54,10.54,0,0,0-10.53-10.54H863.55" transform="translate(-126.85 -76.8)" fill="none" stroke="#8a886a" stroke-linejoin="round" stroke-width="6"/>
          <polygon points="719.75 256.53 743.63 246.78 737.97 256.53 743.63 266.29 719.75 256.53" fill="#8a886a"/>
        </g>
        <g>
          <path d="M846.6,694.93h55.67A10.53,10.53,0,0,0,912.8,684.4V343.87a10.54,10.54,0,0,0-10.53-10.54H860.93" transform="translate(-126.85 -76.8)" fill="none" stroke="#dcdad1" stroke-linejoin="round" stroke-width="3"/>
          <polygon points="740.82 247.65 737.05 256.53 740.82 265.42 719.75 256.53 740.82 247.65" fill="#dcdad1"/>
        </g>
      </g>
    </g>
    <g mask="url(#b)">
      <g>
        <g>
          <line x1="367.95" y1="215.2" x2="367.95" y2="145.77" fill="none" stroke="#2a6755" stroke-linejoin="round" stroke-width="6"/>
          <polygon points="367.95 127.13 378.69 153.4 367.95 147.17 357.22 153.4 367.95 127.13" fill="#2a6755"/>
        </g>
        <g>
          <line x1="367.95" y1="215.2" x2="367.95" y2="144.08" fill="none" stroke="#b5d5c8" stroke-linejoin="round" stroke-width="3"/>
          <polygon points="367.95 127.13 377.71 151.01 367.95 145.34 358.2 151.01 367.95 127.13" fill="#b5d5c8"/>
        </g>
      </g>
    </g>
    <g mask="url(#c)">
      <g>
        <path d="M805.54,179.93H942a7.64,7.64,0,0,1,7.63,7.64V507a7.64,7.64,0,0,1-7.63,7.64H872" transform="translate(-126.85 -76.8)" fill="none" stroke="#f1b9b6" stroke-linejoin="round" stroke-width="4"/>
        <polygon points="719.75 437.87 755.57 423.23 747.07 437.87 755.57 452.5 719.75 437.87" fill="#f1b9b6"/>
      </g>
    </g>
    <g mask="url(#d)">
      <g>
        <line x1="487.96" y1="369.33" x2="487.96" y2="314.81" fill="none" stroke="#4f928b" stroke-linejoin="round" stroke-width="3"/>
        <polygon points="487.96 297.87 497.71 321.75 487.96 316.08 478.2 321.75 487.96 297.87" fill="#4f928b"/>
      </g>
    </g>
    <g mask="url(#e)">
      <g>
        <g>
          <line x1="365.52" y1="577.07" x2="365.52" y2="504.83" fill="none" stroke="#8a886a" stroke-linejoin="round" stroke-width="6"/>
          <polygon points="365.52 481.95 378.69 514.19 365.52 506.54 352.35 514.19 365.52 481.95" fill="#8a886a"/>
        </g>
        <g>
          <line x1="365.52" y1="577.07" x2="365.52" y2="503.14" fill="none" stroke="#dcdad1" stroke-linejoin="round" stroke-width="3"/>
          <polygon points="365.52 481.95 377.72 511.8 365.52 504.72 353.33 511.8 365.52 481.95" fill="#dcdad1"/>
        </g>
      </g>
    </g>
  </g>
  <g>
    <g>
      <text transform="translate(308.88 188.4)" font-size="19" fill="#b5d5c8" font-family="Roboto-Bold, Roboto" font-weight="700">Pl<tspan x="17.29" y="0" letter-spacing="-0.01em">a</tspan><tspan x="27.34" y="0">ys ef</tspan><tspan x="68.46" y="0" letter-spacing="-0.01em">f</tspan><tspan x="75.04" y="0">ect on</tspan></text>
      <text transform="translate(308.88 188.4)" font-size="19" fill="none" stroke="#2a6755" stroke-miterlimit="10" stroke-width="2" font-family="Roboto-Bold, Roboto" font-weight="700">Pl<tspan x="17.29" y="0" letter-spacing="-0.01em">a</tspan><tspan x="27.34" y="0">ys ef</tspan><tspan x="68.46" y="0" letter-spacing="-0.01em">f</tspan><tspan x="75.04" y="0">ect on</tspan></text>
      <text transform="translate(308.88 188.4)" font-size="19" fill="#b5d5c8" font-family="Roboto-Bold, Roboto" font-weight="700">Pl<tspan x="17.29" y="0" letter-spacing="-0.01em">a</tspan><tspan x="27.34" y="0">ys ef</tspan><tspan x="68.46" y="0" letter-spacing="-0.01em">f</tspan><tspan x="75.04" y="0">ect on</tspan></text>
    </g>
    <text transform="translate(414.65 350.09)" font-size="19" fill="#4f928b" font-family="Roboto-Bold, Roboto" font-weight="700"><tspan letter-spacing="-0.04em">T</tspan><tspan x="10.93" y="0">ell what </tspan><tspan x="81.94" y="0" letter-spacing="-0.01em">t</tspan><tspan x="88.08" y="0">o do </tspan><tspan x="129.73" y="0" letter-spacing="-0.01em">t</tspan><tspan x="135.88" y="0">o</tspan></text>
    <g>
      <text transform="translate(291.66 547.42)" font-size="19" fill="#dcdad1" font-family="Roboto-Bold, Roboto" font-weight="700">Sends P<tspan x="70.05" y="0" letter-spacing="-0.01em">r</tspan><tspan x="76.81" y="0">esets </tspan><tspan x="128.04" y="0" letter-spacing="-0.01em">t</tspan><tspan x="134.18" y="0">o</tspan></text>
      <text transform="translate(291.66 547.42)" font-size="19" fill="none" stroke="#8a886a" stroke-miterlimit="10" stroke-width="2" font-family="Roboto-Bold, Roboto" font-weight="700">Sends P<tspan x="70.05" y="0" letter-spacing="-0.01em">r</tspan><tspan x="76.81" y="0">esets </tspan><tspan x="128.04" y="0" letter-spacing="-0.01em">t</tspan><tspan x="134.18" y="0">o</tspan></text>
      <text transform="translate(291.66 547.42)" font-size="19" fill="#dcdad1" font-family="Roboto-Bold, Roboto" font-weight="700">Sends P<tspan x="70.05" y="0" letter-spacing="-0.01em">r</tspan><tspan x="76.81" y="0">esets </tspan><tspan x="128.04" y="0" letter-spacing="-0.01em">t</tspan><tspan x="134.18" y="0">o</tspan></text>
    </g>
    <g>
      <text transform="translate(750.12 524.97)" font-size="19" fill="#dcdad1" font-family="Roboto-Bold, Roboto" font-weight="700">Register<tspan x="6.44" y="22.8">Assets</tspan><tspan x="-4.2" y="45.6">Database</tspan></text>
      <text transform="translate(750.12 524.97)" font-size="19" fill="none" stroke="#8a886a" stroke-miterlimit="10" stroke-width="2" font-family="Roboto-Bold, Roboto" font-weight="700">Register<tspan x="6.44" y="22.8">Assets</tspan><tspan x="-4.2" y="45.6">Database</tspan></text>
      <text transform="translate(750.12 524.97)" font-size="19" fill="#dcdad1" font-family="Roboto-Bold, Roboto" font-weight="700">Register<tspan x="6.44" y="22.8">Assets</tspan><tspan x="-4.2" y="45.6">Database</tspan></text>
    </g>
    <text transform="translate(736.56 179.02)" font-size="19" fill="#f1b9b6" font-family="Roboto-Bold, Roboto" font-weight="700"><tspan letter-spacing="-0.03em">T</tspan><tspan x="11.15" y="0">riggers an item </tspan><tspan x="144.98" y="0" letter-spacing="-0.02em">r</tspan><tspan x="151.57" y="0">oll</tspan><tspan x="-3.06" y="22.8">f</tspan><tspan x="3.75" y="22.8" letter-spacing="-0.02em">r</tspan><tspan x="10.34" y="22.8">om cha</tspan><tspan x="72.99" y="22.8" letter-spacing="-0.01em">r</tspan><tspan x="79.65" y="22.8">acter sheet</tspan></text>
  </g>
</svg>
