<svg xmlns="http://www.w3.org/2000/svg" xmlns:xlink="http://www.w3.org/1999/xlink" viewBox="0 0 910.51 775.14"><defs><mask id="mask" x="642.59" y="196.53" width="221.6" height="688.8" maskUnits="userSpaceOnUse"><g transform="translate(-44.55 -41)"><rect x="687.13" y="237.53" width="212.27" height="308.27" fill="#fff"/><rect x="696.47" y="618.07" width="212.27" height="308.27" fill="#fff"/></g></mask><mask id="mask-2" x="307.12" y="123.73" width="117.73" height="96.17" maskUnits="userSpaceOnUse"><g transform="translate(-44.55 -41)"><rect x="351.67" y="164.73" width="117.73" height="44.67" fill="#fff"/><rect x="351.67" y="238.57" width="117.73" height="22.33" fill="#fff"/></g></mask><mask id="mask-3" x="670.85" y="56.8" width="253.87" height="448.53" maskUnits="userSpaceOnUse"><g transform="translate(-44.55 -41)"><rect x="715.4" y="97.8" width="247.47" height="95.47" fill="#fff"/><rect x="758.6" y="258.33" width="210.67" height="288" fill="#fff"/></g></mask><mask id="mask-4" x="427.12" y="295.11" width="117.73" height="78.04" maskUnits="userSpaceOnUse"><g transform="translate(-44.55 -41)"><rect x="471.67" y="336.11" width="117.73" height="36.25" fill="#fff"/><rect x="471.67" y="396.02" width="117.73" height="18.12" fill="#fff"/></g></mask><mask id="mask-5" x="304.69" y="478.28" width="117.73" height="103.86" maskUnits="userSpaceOnUse"><g transform="translate(-44.55 -41)"><rect x="349.23" y="519.28" width="117.73" height="48.24" fill="#fff"/><rect x="349.23" y="599.02" width="117.73" height="24.12" fill="#fff"/></g></mask></defs><g id="Libraries"><rect x="249.79" y="577.13" width="229.97" height="82" rx="9" fill="#b2b09c"/><path d="M515.3,619.13a8,8,0,0,1,8,8v64a8,8,0,0,1-8,8h-212a8,8,0,0,1-8-8v-64a8,8,0,0,1,8-8h212m0-2h-212a10,10,0,0,0-10,10v64a10,10,0,0,0,10,10h212a10,10,0,0,0,10-10v-64a10,10,0,0,0-10-10Z" transform="translate(-44.55 -41)" fill="#8a886a"/><rect x="514.79" y="577.13" width="202.17" height="82" rx="9" fill="#b2b09c"/><path d="M752.5,619.13a8,8,0,0,1,8,8v64a8,8,0,0,1-8,8H568.33a8,8,0,0,1-8-8v-64a8,8,0,0,1,8-8H752.5m0-2H568.33a10,10,0,0,0-10,10v64a10,10,0,0,0,10,10H752.5a10,10,0,0,0,10-10v-64a10,10,0,0,0-10-10Z" transform="translate(-44.55 -41)" fill="#8a886a"/><text transform="translate(550.25 612.28)" font-size="22" fill="#231f20" font-family="Roboto-Regular, Roboto">Modules with<tspan x="0.16" y="26.4">media assets</tspan></text><text transform="translate(272.96 612.28)" font-size="22" fill="#231f20" font-family="Roboto-Regular, Roboto">D&amp;D5e Animations<tspan x="5.21" y="26.4">PF2e Animations</tspan><tspan x="172.34" y="26.4">-</tspan></text><path d="M561.2,718.8h0c0,5.08,3.55,9.2,7.94,9.2h84.92c4.39,0,7.94,4.12,7.94,9.2v0c0-5.08,3.55-9.2,7.94-9.2h84.92c4.39,0,7.94-4.12,7.94-9.2h0" transform="translate(-44.55 -41)" fill="none" stroke="#fdb913" stroke-linecap="round" stroke-linejoin="round" stroke-width="3"/><path d="M291.7,718.6h0a9.2,9.2,0,0,0,9.2,9.2h98.4a9.2,9.2,0,0,1,9.2,9.2v0a9.2,9.2,0,0,1,9.2-9.2h98.4a9.2,9.2,0,0,0,9.2-9.2h0" transform="translate(-44.55 -41)" fill="none" stroke="#dcdad1" stroke-linecap="round" stroke-linejoin="round" stroke-width="3"/><text transform="translate(582.39 733.95)" font-size="28" fill="#fdb913" font-family="Roboto-Bold, Roboto" font-weight="700">JB2A</text><text transform="translate(329.23 733.95)" font-size="28" fill="#dcdad1" font-family="Roboto-Bold, Roboto" font-weight="700"><tspan letter-spacing="-0.01em">E</tspan><tspan x="15.5" y="0">f</tspan><tspan x="25.54" y="0" letter-spacing="-0.01em">f</tspan><tspan x="35.25" y="0">ect</tspan><tspan x="-11.05" y="33.6">P</tspan><tspan x="7.01" y="33.6" letter-spacing="-0.01em">r</tspan><tspan x="16.97" y="33.6">esets</tspan></text><text transform="translate(0 630.78)" font-size="36" fill="#dcdad1" font-family="Roboto-Bold, Roboto" font-weight="700">Lib<tspan x="49.31" y="0" letter-spacing="-0.01em">r</tspan><tspan x="61.91" y="0">aries</tspan></text><line x1="248.25" y1="621.13" x2="144.72" y2="621.13" fill="none" stroke-dasharray="1 20" stroke-linecap="round" stroke-linejoin="round" stroke-width="5" stroke="#dcdad1"/></g><g id="User_Interface" data-name="User Interface"><rect x="249.75" y="370.83" width="467" height="134.07" rx="8.5" fill="#254441"/><path d="M752.8,413.33a7,7,0,0,1,7,7V537.4a7,7,0,0,1-7,7h-450a7,7,0,0,1-7-7V420.33a7,7,0,0,1,7-7h450m0-3h-450a10,10,0,0,0-10,10V537.4a10,10,0,0,0,10,10h450a10,10,0,0,0,10-10V420.33a10,10,0,0,0-10-10Z" transform="translate(-44.55 -41)" fill="#0d1a18"/><rect x="515.49" y="398.8" width="184.33" height="82.53" rx="10" fill="none" stroke="#50928b" stroke-miterlimit="10" stroke-width="2"/><rect x="270.45" y="399.42" width="184.33" height="82.53" rx="10" fill="none" stroke="#50928b" stroke-miterlimit="10" stroke-width="2"/><text transform="translate(519.27 449.06)" font-size="27" fill="#fff" font-family="Roboto-Bold, Roboto" font-weight="700">PF2e G<tspan x="87.41" y="0" letter-spacing="-0.01em">r</tspan><tspan x="96.86" y="0">aphics</tspan></text><text transform="translate(471.24 447.81)" font-size="22" fill="#c91f3b" font-family="Roboto-Bold, Roboto" font-weight="700" text-decoration="underline">OR</text><text transform="translate(296 433.08)" font-size="27" fill="#fff" font-family="Roboto-Bold, Roboto" font-weight="700"><tspan letter-spacing="-0.01em">A</tspan><tspan x="18.02" y="0">u</tspan><tspan x="33.13" y="0" letter-spacing="-0.01em">t</tspan><tspan x="41.86" y="0">omated</tspan><tspan x="-2.16" y="32.4" letter-spacing="-0.02em">A</tspan><tspan x="15.38" y="32.4">nimations</tspan></text><text transform="translate(0 428.82)" font-size="36" fill="#50928b" font-family="Roboto-Bold, Roboto" font-weight="700">User<tspan x="0" y="43.2">Inte</tspan><tspan x="62.28" y="43.2" letter-spacing="0.01em">r</tspan><tspan x="75.76" y="43.2">face</tspan></text><line x1="248.25" y1="437.87" x2="148.19" y2="437.87" fill="none" stroke-dasharray="1 20" stroke-linecap="round" stroke-linejoin="round" stroke-width="5" stroke="#50928b"/></g><g id="Engine"><rect x="249.75" y="216.7" width="467" height="79.67" rx="8.5" fill="#40a88a"/><path d="M752.8,259.2a7,7,0,0,1,7,7v62.67a7,7,0,0,1-7,7h-450a7,7,0,0,1-7-7V266.2a7,7,0,0,1,7-7h450m0-3h-450a10,10,0,0,0-10,10v62.67a10,10,0,0,0,10,10h450a10,10,0,0,0,10-10V266.2a10,10,0,0,0-10-10Z" transform="translate(-44.55 -41)" fill="#2a6755"/><text transform="translate(381.57 268.94)" font-size="36" fill="#f1f2f2" font-family="Roboto-Bold, Roboto" font-weight="700">SEQUENCER</text><line x1="248.25" y1="259.15" x2="148.19" y2="259.15" fill="none" stroke-dasharray="1 20" stroke-linecap="round" stroke-linejoin="round" stroke-width="5" stroke="#dfebe6"/><text transform="translate(0 269.85)" font-size="36" fill="#b5d5c8" font-family="Roboto-Bold, Roboto" font-weight="700">Engine</text></g><g id="App"><rect x="251.25" y="3" width="464" height="146" rx="7" fill="#db504a"/><path d="M752.8,47a4,4,0,0,1,4,4V183a4,4,0,0,1-4,4h-450a4,4,0,0,1-4-4V51a4,4,0,0,1,4-4h450m0-6h-450a10,10,0,0,0-10,10V183a10,10,0,0,0,10,10h450a10,10,0,0,0,10-10V51a10,10,0,0,0-10-10Z" transform="translate(-44.55 -41)" fill="#ab2524"/><rect x="284.25" y="77.13" width="164.4" height="50" rx="10" fill="none" stroke="#eeb3a5" stroke-miterlimit="10" stroke-width="2"/><rect x="537.2" y="77.13" width="140" height="50" rx="10" fill="none" stroke="#eeb3a5" stroke-miterlimit="10" stroke-width="2"/><text transform="translate(371.19 59)" font-size="38" fill="#fff" font-family="Roboto-Bold, Roboto" font-weight="700">FOUD<tspan x="96.76" y="0" letter-spacing="-0.02em">R</tspan><tspan x="120.12" y="0">Y V</tspan><tspan x="177.92" y="0" letter-spacing="0.01em">T</tspan><tspan x="201.73" y="0" letter-spacing="-0.03em">T</tspan></text><text transform="translate(570.4 114.83)" font-size="36" fill="#fff" font-family="Roboto-Bold, Roboto" font-weight="700">User</text><text transform="translate(0 88.39)" font-size="36" fill="#eeb3a5" font-family="Roboto-Bold, Roboto" font-weight="700"><tspan letter-spacing="-0.02em">A</tspan><tspan x="23.38" y="0">pp</tspan></text><text transform="translate(307.58 113.83)" font-size="36" fill="#fff" font-family="Roboto-Bold, Roboto" font-weight="700">Can<tspan x="63.02" y="0" letter-spacing="-0.01em">v</tspan><tspan x="80.95" y="0">as</tspan></text><line x1="248.25" y1="77.13" x2="148.19" y2="77.13" fill="none" stroke-dasharray="1 20" stroke-linecap="round" stroke-linejoin="round" stroke-width="5" stroke="#eeb3a5"/></g><g id="Arrow"><g mask="url(#mask)"><path d="M762.8,659.13h55.67A10.53,10.53,0,0,0,829,648.6V308.07a10.54,10.54,0,0,0-10.53-10.54H777.13" transform="translate(-44.55 -41)" fill="none" stroke="#dcdad1" stroke-linejoin="round" stroke-width="3"/><polygon points="739.32 247.65 735.55 256.53 739.32 265.42 718.25 256.53 739.32 247.65" fill="#dcdad1"/></g><g mask="url(#mask-2)"><line x1="366.45" y1="215.2" x2="366.45" y2="144.08" fill="none" stroke="#b5d5c8" stroke-linejoin="round" stroke-width="3"/><polygon points="366.45 127.13 376.21 151.01 366.45 145.34 356.7 151.01 366.45 127.13" fill="#b5d5c8"/></g><g mask="url(#mask-3)"><path d="M721.74,144.13H858.17a7.64,7.64,0,0,1,7.63,7.64V471.23a7.64,7.64,0,0,1-7.63,7.64H788.22" transform="translate(-44.55 -41)" fill="none" stroke="#eeb3a5" stroke-linejoin="round" stroke-width="4"/><polygon points="718.25 437.87 754.07 423.23 745.57 437.87 754.07 452.5 718.25 437.87" fill="#eeb3a5"/></g><g mask="url(#mask-4)"><line x1="486.46" y1="369.33" x2="486.46" y2="314.81" fill="none" stroke="#50928b" stroke-linejoin="round" stroke-width="3"/><polygon points="486.46 297.87 496.21 321.75 486.46 316.08 476.7 321.75 486.46 297.87" fill="#50928b"/></g><g mask="url(#mask-5)"><line x1="364.02" y1="577.07" x2="364.02" y2="498.9" fill="none" stroke="#dcdad1" stroke-linejoin="round" stroke-width="3"/><polygon points="364.02 481.95 373.78 505.83 364.02 500.17 354.26 505.83 364.02 481.95" fill="#dcdad1"/></g></g><g id="Arrow_Text" data-name="Arrow Text"><text transform="translate(307.38 188.4)" font-size="19" fill="#b5d5c8" font-family="Roboto-Bold, Roboto" font-weight="700">Pl<tspan x="17.29" y="0" letter-spacing="-0.01em">a</tspan><tspan x="27.34" y="0">ys ef</tspan><tspan x="68.46" y="0" letter-spacing="-0.01em">f</tspan><tspan x="75.04" y="0">ect on</tspan></text><text transform="translate(413.15 350.09)" font-size="19" fill="#50928b" font-family="Roboto-Bold, Roboto" font-weight="700"><tspan letter-spacing="-0.04em">T</tspan><tspan x="10.93" y="0">ell what </tspan><tspan x="81.94" y="0" letter-spacing="-0.01em">t</tspan><tspan x="88.08" y="0">o do </tspan><tspan x="129.73" y="0" letter-spacing="-0.01em">t</tspan><tspan x="135.88" y="0">o</tspan></text><text transform="translate(290.16 547.42)" font-size="19" fill="#dcdad1" font-family="Roboto-Bold, Roboto" font-weight="700">Sends P<tspan x="70.05" y="0" letter-spacing="-0.01em">r</tspan><tspan x="76.81" y="0">esets </tspan><tspan x="128.04" y="0" letter-spacing="-0.01em">t</tspan><tspan x="134.18" y="0">o</tspan></text><text transform="translate(748.62 524.97)" font-size="19" fill="#dcdad1" font-family="Roboto-Bold, Roboto" font-weight="700">Register<tspan x="6.44" y="22.8">Assets</tspan><tspan x="-4.2" y="45.6">Database</tspan></text><text transform="translate(735.06 179.02)" font-size="19" fill="#eeb3a5" font-family="Roboto-Bold, Roboto" font-weight="700"><tspan letter-spacing="-0.03em">T</tspan><tspan x="11.15" y="0">riggers an item </tspan><tspan x="144.98" y="0" letter-spacing="-0.02em">r</tspan><tspan x="151.57" y="0">oll</tspan><tspan x="-3.06" y="22.8">f</tspan><tspan x="3.75" y="22.8" letter-spacing="-0.02em">r</tspan><tspan x="10.34" y="22.8">om cha</tspan><tspan x="72.99" y="22.8" letter-spacing="-0.01em">r</tspan><tspan x="79.65" y="22.8">acter sheet</tspan></text></g></svg>